Roman_opsz12_wght700.ufo
<glyph name="dollar" format="2">
  <advance width="562"/>
  <unicode hex="0024"/>
  <outline>
    <contour>
      <point x="302" y="656" type="line"/>
      <point x="371" y="652"/>
      <point x="419" y="628"/>
      <point x="444" y="579" type="curve"/>
      <point x="395" y="578"/>
      <point x="381" y="544"/>
      <point x="381" y="520" type="curve" smooth="yes"/>
      <point x="381" y="481"/>
      <point x="410" y="461"/>
      <point x="440" y="461" type="curve" smooth="yes"/>
      <point x="462" y="461"/>
      <point x="499" y="473"/>
      <point x="499" y="523" type="curve" smooth="yes"/>
      <point x="499" y="623"/>
      <point x="425" y="694"/>
      <point x="302" y="699" type="curve"/>
      <point x="302" y="750" type="line"/>
      <point x="259" y="750" type="line"/>
      <point x="259" y="699" type="line"/>
      <point x="125" y="690"/>
      <point x="62" y="599"/>
      <point x="62" y="500" type="curve" smooth="yes"/>
      <point x="62" y="426"/>
      <point x="104" y="379"/>
      <point x="114" y="369" type="curve" smooth="yes"/>
      <point x="164" y="318"/>
      <point x="213" y="308"/>
      <point x="259" y="298" type="curve"/>
      <point x="259" y="38" type="line"/>
      <point x="186" y="44"/>
      <point x="136" y="75"/>
      <point x="115" y="128" type="curve"/>
      <point x="139" y="128"/>
      <point x="180" y="141"/>
      <point x="180" y="188" type="curve" smooth="yes"/>
      <point x="180" y="223"/>
      <point x="155" y="247"/>
      <point x="121" y="247" type="curve" smooth="yes"/>
      <point x="97" y="247"/>
      <point x="62" y="234"/>
      <point x="62" y="184" type="curve" smooth="yes"/>
      <point x="62" y="85"/>
      <point x="130" y="2"/>
      <point x="259" y="-5" type="curve"/>
      <point x="259" y="-56" type="line"/>
      <point x="302" y="-56" type="line"/>
      <point x="302" y="-5" type="line"/>
      <point x="453" y="8"/>
      <point x="499" y="120"/>
      <point x="499" y="207" type="curve" smooth="yes"/>
      <point x="499" y="261"/>
      <point x="479" y="314"/>
      <point x="442" y="354" type="curve" smooth="yes"/>
      <point x="395" y="404"/>
      <point x="344" y="415"/>
      <point x="302" y="424" type="curve"/>
    </contour>
    <contour>
      <point x="259" y="433" type="line"/>
      <point x="167" y="450"/>
      <point x="136" y="502"/>
      <point x="136" y="546" type="curve" smooth="yes"/>
      <point x="136" y="585"/>
      <point x="161" y="648"/>
      <point x="259" y="656" type="curve"/>
    </contour>
    <contour>
      <point x="302" y="288" type="line"/>
      <point x="384" y="274"/>
      <point x="425" y="218"/>
      <point x="425" y="162" type="curve" smooth="yes"/>
      <point x="425" y="127"/>
      <point x="409" y="50"/>
      <point x="302" y="38" type="curve"/>
    </contour>
  </outline>
</glyph>
<glyph name="period" format="2">
  <advance width="312"/>
  <unicode hex="002E"/>
  <outline>
    <contour>
      <point x="228" y="72" type="curve" smooth="yes"/>
      <point x="228" y="113"/>
      <point x="195" y="144"/>
      <point x="156" y="144" type="curve" smooth="yes"/>
      <point x="117" y="144"/>
      <point x="84" y="113"/>
      <point x="84" y="72" type="curve" smooth="yes"/>
      <point x="84" y="31"/>
      <point x="117" y="0"/>
      <point x="156" y="0" type="curve" smooth="yes"/>
      <point x="195" y="0"/>
      <point x="228" y="31"/>
    </contour>
  </outline>
</glyph>
<glyph name="slash" format="2">
  <advance width="562"/>
  <unicode hex="002F"/>
  <outline>
    <contour>
      <point x="494" y="704" type="line" smooth="yes"/>
      <point x="499" y="716"/>
      <point x="499" y="720"/>
      <point x="499" y="722" type="curve" smooth="yes"/>
      <point x="499" y="740"/>
      <point x="485" y="750"/>
      <point x="472" y="750" type="curve" smooth="yes"/>
      <point x="453" y="750"/>
      <point x="449" y="738"/>
      <point x="443" y="724" type="curve" smooth="yes"/>
      <point x="67" y="-204" type="line" smooth="yes"/>
      <point x="62" y="-216"/>
      <point x="62" y="-220"/>
      <point x="62" y="-222" type="curve" smooth="yes"/>
      <point x="62" y="-240"/>
      <point x="76" y="-250"/>
      <point x="89" y="-250" type="curve" smooth="yes"/>
      <point x="108" y="-250"/>
      <point x="112" y="-239"/>
      <point x="118" y="-224" type="curve" smooth="yes"/>
    </contour>
  </outline>
</glyph>
<glyph name="zero" format="2">
  <advance width="562"/>
  <unicode hex="0030"/>
  <outline>
    <contour>
      <point x="517" y="319" type="curve" smooth="yes"/>
      <point x="517" y="415"/>
      <point x="517" y="656"/>
      <point x="281" y="656" type="curve" smooth="yes"/>
      <point x="44" y="656"/>
      <point x="44" y="416"/>
      <point x="44" y="319" type="curve" smooth="yes"/>
      <point x="44" y="223"/>
      <point x="44" y="-12"/>
      <point x="280" y="-12" type="curve" smooth="yes"/>
      <point x="516" y="-12"/>
      <point x="517" y="220"/>
    </contour>
    <contour>
      <point x="281" y="21" type="curve" smooth="yes"/>
      <point x="249" y="21"/>
      <point x="225" y="34"/>
      <point x="205" y="55" type="curve" smooth="yes"/>
      <point x="180" y="80"/>
      <point x="164" y="96"/>
      <point x="164" y="331" type="curve" smooth="yes"/>
      <point x="164" y="401"/>
      <point x="164" y="465"/>
      <point x="172" y="517" type="curve" smooth="yes"/>
      <point x="186" y="616"/>
      <point x="258" y="623"/>
      <point x="280" y="623" type="curve" smooth="yes"/>
      <point x="312" y="623"/>
      <point x="374" y="608"/>
      <point x="388" y="524" type="curve" smooth="yes"/>
      <point x="397" y="473"/>
      <point x="397" y="392"/>
      <point x="397" y="331" type="curve" smooth="yes"/>
      <point x="397" y="95"/>
      <point x="382" y="81"/>
      <point x="352" y="51" type="curve" smooth="yes"/>
      <point x="332" y="31"/>
      <point x="305" y="21"/>
    </contour>
  </outline>
</glyph>
<glyph name="one" format="2">
  <advance width="562"/>
  <unicode hex="0031"/>
  <outline>
    <contour>
      <point x="346" y="627" type="line" smooth="yes"/>
      <point x="346" y="656"/>
      <point x="344" y="656"/>
      <point x="312" y="656" type="curve"/>
      <point x="238" y="592"/>
      <point x="127" y="592"/>
      <point x="105" y="592" type="curve" smooth="yes"/>
      <point x="86" y="592" type="line"/>
      <point x="86" y="549" type="line"/>
      <point x="105" y="549" type="line" smooth="yes"/>
      <point x="140" y="549"/>
      <point x="193" y="555"/>
      <point x="233" y="568" type="curve"/>
      <point x="233" y="43" type="line"/>
      <point x="94" y="43" type="line"/>
      <point x="94" y="0" type="line"/>
      <point x="136" y="2"/>
      <point x="241" y="2"/>
      <point x="288" y="2" type="curve" smooth="yes"/>
      <point x="335" y="2"/>
      <point x="441" y="2"/>
      <point x="483" y="0" type="curve"/>
      <point x="483" y="43" type="line"/>
      <point x="346" y="43" type="line"/>
    </contour>
  </outline>
</glyph>
<glyph name="seven" format="2">
  <advance width="562"/>
  <unicode hex="0037"/>
  <outline>
    <contour>
      <point x="536" y="599" type="line" smooth="yes"/>
      <point x="545" y="609"/>
      <point x="545" y="611"/>
      <point x="545" y="644" type="curve"/>
      <point x="334" y="644" type="line" smooth="yes"/>
      <point x="327" y="644"/>
      <point x="178" y="649"/>
      <point x="166" y="651" type="curve" smooth="yes"/>
      <point x="141" y="655"/>
      <point x="139" y="666"/>
      <point x="137" y="676" type="curve"/>
      <point x="95" y="676" type="line"/>
      <point x="62" y="429" type="line"/>
      <point x="104" y="429" type="line"/>
      <point x="105" y="439"/>
      <point x="113" y="509"/>
      <point x="130" y="520" type="curve" smooth="yes"/>
      <point x="139" y="526"/>
      <point x="222" y="526"/>
      <point x="238" y="526" type="curve" smooth="yes"/>
      <point x="419" y="526" type="line"/>
      <point x="303" y="385"/>
      <point x="290" y="369"/>
      <point x="259" y="310" type="curve" smooth="yes"/>
      <point x="200" y="194"/>
      <point x="191" y="104"/>
      <point x="191" y="55" type="curve" smooth="yes"/>
      <point x="191" y="-12"/>
      <point x="242" y="-12"/>
      <point x="250" y="-12" type="curve" smooth="yes"/>
      <point x="275" y="-12"/>
      <point x="289" y="1"/>
      <point x="296" y="8" type="curve"/>
      <point x="309" y="24"/>
      <point x="309" y="36"/>
      <point x="309" y="80" type="curve" smooth="yes"/>
      <point x="309" y="233"/>
      <point x="323" y="345"/>
      <point x="386" y="420" type="curve" smooth="yes"/>
    </contour>
  </outline>
</glyph>
<glyph name="eight" format="2">
  <advance width="562"/>
  <unicode hex="0038"/>
  <outline>
    <contour>
      <point x="377" y="368" type="curve"/>
      <point x="427" y="394"/>
      <point x="483" y="431"/>
      <point x="483" y="509" type="curve" smooth="yes"/>
      <point x="483" y="612"/>
      <point x="391" y="656"/>
      <point x="282" y="656" type="curve" smooth="yes"/>
      <point x="149" y="656"/>
      <point x="78" y="580"/>
      <point x="78" y="483" type="curve" smooth="yes"/>
      <point x="78" y="429"/>
      <point x="105" y="369"/>
      <point x="179" y="330" type="curve"/>
      <point x="66" y="280"/>
      <point x="47" y="211"/>
      <point x="47" y="159" type="curve" smooth="yes"/>
      <point x="47" y="44"/>
      <point x="147" y="-12"/>
      <point x="279" y="-12" type="curve" smooth="yes"/>
      <point x="427" y="-12"/>
      <point x="514" y="68"/>
      <point x="514" y="184" type="curve" smooth="yes"/>
      <point x="514" y="293"/>
      <point x="428" y="340"/>
    </contour>
    <contour>
      <point x="197" y="471" type="line" smooth="yes"/>
      <point x="177" y="482"/>
      <point x="149" y="505"/>
      <point x="149" y="538" type="curve" smooth="yes"/>
      <point x="149" y="618"/>
      <point x="256" y="620"/>
      <point x="279" y="620" type="curve" smooth="yes"/>
      <point x="364" y="620"/>
      <point x="412" y="575"/>
      <point x="412" y="509" type="curve" smooth="yes"/>
      <point x="412" y="468"/>
      <point x="394" y="425"/>
      <point x="337" y="392" type="curve"/>
    </contour>
    <contour>
      <point x="220" y="306" type="curve"/>
      <point x="358" y="227" type="line" smooth="yes"/>
      <point x="391" y="208"/>
      <point x="434" y="184"/>
      <point x="434" y="133" type="curve" smooth="yes"/>
      <point x="434" y="53"/>
      <point x="354" y="28"/>
      <point x="282" y="28" type="curve" smooth="yes"/>
      <point x="183" y="28"/>
      <point x="127" y="81"/>
      <point x="127" y="160" type="curve" smooth="yes"/>
      <point x="127" y="233"/>
      <point x="172" y="279"/>
    </contour>
  </outline>
</glyph>
<glyph name="nine" format="2">
  <advance width="562"/>
  <unicode hex="0039"/>
  <outline>
    <contour>
      <point x="387" y="282" type="line" smooth="yes"/>
      <point x="387" y="212"/>
      <point x="387" y="28"/>
      <point x="231" y="28" type="curve" smooth="yes"/>
      <point x="200" y="28"/>
      <point x="164" y="36"/>
      <point x="143" y="52" type="curve"/>
      <point x="172" y="58"/>
      <point x="193" y="79"/>
      <point x="193" y="111" type="curve" smooth="yes"/>
      <point x="193" y="147"/>
      <point x="166" y="170"/>
      <point x="134" y="170" type="curve" smooth="yes"/>
      <point x="108" y="170"/>
      <point x="75" y="153"/>
      <point x="75" y="109" type="curve" smooth="yes"/>
      <point x="75" y="39"/>
      <point x="130" y="-12"/>
      <point x="233" y="-12" type="curve" smooth="yes"/>
      <point x="360" y="-12"/>
      <point x="514" y="71"/>
      <point x="514" y="329" type="curve" smooth="yes"/>
      <point x="514" y="396"/>
      <point x="514" y="656"/>
      <point x="283" y="656" type="curve" smooth="yes"/>
      <point x="145" y="656"/>
      <point x="47" y="576"/>
      <point x="47" y="439" type="curve" smooth="yes"/>
      <point x="47" y="300"/>
      <point x="143" y="225"/>
      <point x="263" y="225" type="curve" smooth="yes"/>
      <point x="305" y="225"/>
      <point x="355" y="240"/>
      <point x="387" y="311" type="curve"/>
    </contour>
    <contour>
      <point x="273" y="258" type="curve" smooth="yes"/>
      <point x="174" y="258"/>
      <point x="174" y="339"/>
      <point x="174" y="437" type="curve" smooth="yes"/>
      <point x="174" y="533"/>
      <point x="174" y="620"/>
      <point x="283" y="620" type="curve" smooth="yes"/>
      <point x="347" y="620"/>
      <point x="370" y="563"/>
      <point x="374" y="552" type="curve" smooth="yes"/>
      <point x="384" y="522"/>
      <point x="386" y="460"/>
      <point x="386" y="427" type="curve" smooth="yes"/>
      <point x="386" y="357"/>
      <point x="357" y="258"/>
    </contour>
  </outline>
</glyph>
<glyph name="colon" format="2">
  <advance width="312"/>
  <unicode hex="003A"/>
  <outline>
    <contour>
      <point x="228" y="372" type="curve" smooth="yes"/>
      <point x="228" y="413"/>
      <point x="195" y="444"/>
      <point x="156" y="444" type="curve" smooth="yes"/>
      <point x="117" y="444"/>
      <point x="84" y="413"/>
      <point x="84" y="372" type="curve" smooth="yes"/>
      <point x="84" y="331"/>
      <point x="117" y="300"/>
      <point x="156" y="300" type="curve" smooth="yes"/>
      <point x="195" y="300"/>
      <point x="228" y="331"/>
    </contour>
    <contour>
      <point x="228" y="72" type="curve" smooth="yes"/>
      <point x="228" y="113"/>
      <point x="195" y="144"/>
      <point x="156" y="144" type="curve" smooth="yes"/>
      <point x="117" y="144"/>
      <point x="84" y="113"/>
      <point x="84" y="72" type="curve" smooth="yes"/>
      <point x="84" y="31"/>
      <point x="117" y="0"/>
      <point x="156" y="0" type="curve" smooth="yes"/>
      <point x="195" y="0"/>
      <point x="228" y="31"/>
    </contour>
  </outline>
</glyph>
<glyph name="I" format="2">
  <advance width="418"/>
  <unicode hex="0049"/>
  <outline>
    <contour>
      <point x="275" y="643" type="line"/>
      <point x="387" y="643" type="line"/>
      <point x="387" y="686" type="line"/>
      <point x="351" y="684"/>
      <point x="251" y="684"/>
      <point x="209" y="684" type="curve" smooth="yes"/>
      <point x="167" y="684"/>
      <point x="67" y="684"/>
      <point x="31" y="686" type="curve"/>
      <point x="31" y="643" type="line"/>
      <point x="143" y="643" type="line"/>
      <point x="143" y="43" type="line"/>
      <point x="31" y="43" type="line"/>
      <point x="31" y="0" type="line"/>
      <point x="67" y="2"/>
      <point x="167" y="2"/>
      <point x="209" y="2" type="curve" smooth="yes"/>
      <point x="251" y="2"/>
      <point x="351" y="2"/>
      <point x="387" y="0" type="curve"/>
      <point x="387" y="43" type="line"/>
      <point x="275" y="43" type="line"/>
    </contour>
  </outline>
</glyph>
<glyph name="O" format="2">
  <advance width="844"/>
  <unicode hex="004F"/>
  <outline>
    <contour>
      <point x="782" y="340" type="curve" smooth="yes"/>
      <point x="782" y="552"/>
      <point x="644" y="698"/>
      <point x="422" y="698" type="curve" smooth="yes"/>
      <point x="199" y="698"/>
      <point x="62" y="551"/>
      <point x="62" y="340" type="curve" smooth="yes"/>
      <point x="62" y="129"/>
      <point x="202" y="-12"/>
      <point x="422" y="-12" type="curve" smooth="yes"/>
      <point x="642" y="-12"/>
      <point x="782" y="129"/>
    </contour>
    <contour>
      <point x="422" y="26" type="curve" smooth="yes"/>
      <point x="357" y="26"/>
      <point x="294" y="57"/>
      <point x="256" y="114" type="curve" smooth="yes"/>
      <point x="208" y="187"/>
      <point x="203" y="281"/>
      <point x="203" y="354" type="curve" smooth="yes"/>
      <point x="203" y="415"/>
      <point x="206" y="499"/>
      <point x="247" y="567" type="curve" smooth="yes"/>
      <point x="291" y="637"/>
      <point x="363" y="662"/>
      <point x="422" y="662" type="curve" smooth="yes"/>
      <point x="503" y="662"/>
      <point x="563" y="619"/>
      <point x="592" y="574" type="curve" smooth="yes"/>
      <point x="629" y="516"/>
      <point x="641" y="454"/>
      <point x="641" y="354" type="curve" smooth="yes"/>
      <point x="641" y="255"/>
      <point x="630" y="172"/>
      <point x="580" y="103" type="curve" smooth="yes"/>
      <point x="555" y="69"/>
      <point x="500" y="26"/>
    </contour>
  </outline>
</glyph>
<glyph name="grave" format="2">
  <advance width="562"/>
  <unicode hex="0060"/>
  <outline>
    <contour>
      <point x="216" y="679" type="line" smooth="yes"/>
      <point x="209" y="687"/>
      <point x="196" y="704"/>
      <point x="172" y="704" type="curve" smooth="yes"/>
      <point x="142" y="704"/>
      <point x="114" y="674"/>
      <point x="114" y="644" type="curve" smooth="yes"/>
      <point x="114" y="616"/>
      <point x="138" y="601"/>
      <point x="145" y="597" type="curve" smooth="yes"/>
      <point x="301" y="511" type="line"/>
      <point x="328" y="543" type="line"/>
    </contour>
  </outline>
</glyph>
<glyph name="g" format="2">
  <advance width="562"/>
  <unicode hex="0067"/>
  <outline>
    <contour>
      <point x="130" y="182" type="curve"/>
      <point x="178" y="156"/>
      <point x="234" y="156"/>
      <point x="249" y="156" type="curve" smooth="yes"/>
      <point x="387" y="156"/>
      <point x="442" y="233"/>
      <point x="442" y="303" type="curve" smooth="yes"/>
      <point x="442" y="354"/>
      <point x="413" y="390"/>
      <point x="401" y="400" type="curve"/>
      <point x="430" y="416"/>
      <point x="454" y="420"/>
      <point x="471" y="422" type="curve"/>
      <point x="468" y="417"/>
      <point x="465" y="413"/>
      <point x="465" y="400" type="curve" smooth="yes"/>
      <point x="465" y="379"/>
      <point x="479" y="360"/>
      <point x="505" y="360" type="curve" smooth="yes"/>
      <point x="531" y="360"/>
      <point x="545" y="379"/>
      <point x="545" y="400" type="curve" smooth="yes"/>
      <point x="545" y="424"/>
      <point x="527" y="456"/>
      <point x="485" y="456" type="curve" smooth="yes"/>
      <point x="442" y="456"/>
      <point x="401" y="435"/>
      <point x="380" y="417" type="curve"/>
      <point x="339" y="441"/>
      <point x="300" y="450"/>
      <point x="249" y="450" type="curve" smooth="yes"/>
      <point x="111" y="450"/>
      <point x="56" y="373"/>
      <point x="56" y="303" type="curve" smooth="yes"/>
      <point x="56" y="272"/>
      <point x="66" y="231"/>
      <point x="108" y="197" type="curve"/>
      <point x="91" y="178"/>
      <point x="73" y="143"/>
      <point x="73" y="107" type="curve" smooth="yes"/>
      <point x="73" y="64"/>
      <point x="96" y="27"/>
      <point x="117" y="11" type="curve"/>
      <point x="93" y="5"/>
      <point x="31" y="-18"/>
      <point x="31" y="-75" type="curve" smooth="yes"/>
      <point x="31" y="-134"/>
      <point x="96" y="-201"/>
      <point x="280" y="-201" type="curve" smooth="yes"/>
      <point x="446" y="-201"/>
      <point x="530" y="-147"/>
      <point x="530" y="-72" type="curve" smooth="yes"/>
      <point x="530" y="16"/>
      <point x="472" y="45"/>
      <point x="447" y="57" type="curve" smooth="yes"/>
      <point x="399" y="81"/>
      <point x="335" y="81"/>
      <point x="247" y="81" type="curve" smooth="yes"/>
      <point x="222" y="81"/>
      <point x="178" y="81"/>
      <point x="173" y="82" type="curve" smooth="yes"/>
      <point x="130" y="89"/>
      <point x="118" y="127"/>
      <point x="118" y="146" type="curve" smooth="yes"/>
      <point x="118" y="154"/>
      <point x="119" y="169"/>
    </contour>
    <contour>
      <point x="249" y="188" type="curve" smooth="yes"/>
      <point x="162" y="188"/>
      <point x="162" y="257"/>
      <point x="162" y="303" type="curve" smooth="yes"/>
      <point x="162" y="349"/>
      <point x="162" y="418"/>
      <point x="249" y="418" type="curve" smooth="yes"/>
      <point x="336" y="418"/>
      <point x="336" y="349"/>
      <point x="336" y="303" type="curve" smooth="yes"/>
      <point x="336" y="257"/>
      <point x="336" y="188"/>
    </contour>
    <contour>
      <point x="305" y="-11" type="line" smooth="yes"/>
      <point x="378" y="-11"/>
      <point x="448" y="-24"/>
      <point x="448" y="-76" type="curve" smooth="yes"/>
      <point x="448" y="-111"/>
      <point x="413" y="-169"/>
      <point x="281" y="-169" type="curve" smooth="yes"/>
      <point x="149" y="-169"/>
      <point x="113" y="-113"/>
      <point x="113" y="-75" type="curve" smooth="yes"/>
      <point x="113" y="-11"/>
      <point x="176" y="-11"/>
      <point x="191" y="-11" type="curve" smooth="yes"/>
    </contour>
  </outline>
</glyph>
<glyph name="j" format="2">
  <advance width="343"/>
  <unicode hex="006A"/>
  <outline>
    <contour>
      <point x="258" y="623" type="curve" smooth="yes"/>
      <point x="258" y="663"/>
      <point x="226" y="695"/>
      <point x="186" y="695" type="curve" smooth="yes"/>
      <point x="146" y="695"/>
      <point x="114" y="663"/>
      <point x="114" y="623" type="curve" smooth="yes"/>
      <point x="114" y="583"/>
      <point x="146" y="551"/>
      <point x="186" y="551" type="curve" smooth="yes"/>
      <point x="226" y="551"/>
      <point x="258" y="583"/>
    </contour>
    <contour>
      <point x="78" y="442" type="line"/>
      <point x="78" y="399" type="line"/>
      <point x="95" y="399"/>
      <point x="117" y="399"/>
      <point x="132" y="397" type="curve" smooth="yes"/>
      <point x="154" y="393"/>
      <point x="154" y="380"/>
      <point x="154" y="359" type="curve" smooth="yes"/>
      <point x="154" y="-45" type="line" smooth="yes"/>
      <point x="154" y="-90"/>
      <point x="142" y="-167"/>
      <point x="81" y="-167" type="curve" smooth="yes"/>
      <point x="62" y="-167"/>
      <point x="49" y="-163"/>
      <point x="40" y="-161" type="curve"/>
      <point x="45" y="-158"/>
      <point x="65" y="-142"/>
      <point x="65" y="-112" type="curve" smooth="yes"/>
      <point x="65" y="-76"/>
      <point x="39" y="-53"/>
      <point x="6" y="-53" type="curve" smooth="yes"/>
      <point x="-28" y="-53"/>
      <point x="-53" y="-77"/>
      <point x="-53" y="-112" type="curve" smooth="yes"/>
      <point x="-53" y="-170"/>
      <point x="9" y="-200"/>
      <point x="81" y="-200" type="curve" smooth="yes"/>
      <point x="165" y="-200"/>
      <point x="258" y="-148"/>
      <point x="258" y="-45" type="curve" smooth="yes"/>
      <point x="258" y="450" type="line"/>
    </contour>
  </outline>
</glyph>
<glyph name="p" format="2">
  <advance width="625"/>
  <unicode hex="0070"/>
  <outline>
    <contour>
      <point x="282" y="-151" type="line"/>
      <point x="213" y="-151" type="line"/>
      <point x="213" y="41" type="line"/>
      <point x="238" y="19"/>
      <point x="282" y="-6"/>
      <point x="342" y="-6" type="curve" smooth="yes"/>
      <point x="479" y="-6"/>
      <point x="586" y="77"/>
      <point x="586" y="223" type="curve" smooth="yes"/>
      <point x="586" y="361"/>
      <point x="493" y="450"/>
      <point x="358" y="450" type="curve" smooth="yes"/>
      <point x="299" y="450"/>
      <point x="248" y="430"/>
      <point x="208" y="398" type="curve"/>
      <point x="208" y="450" type="line"/>
      <point x="35" y="442" type="line"/>
      <point x="35" y="399" type="line"/>
      <point x="97" y="399"/>
      <point x="104" y="399"/>
      <point x="104" y="360" type="curve" smooth="yes"/>
      <point x="104" y="-151" type="line"/>
      <point x="35" y="-151" type="line"/>
      <point x="35" y="-194" type="line"/>
      <point x="58" y="-192"/>
      <point x="130" y="-192"/>
      <point x="158" y="-192" type="curve" smooth="yes"/>
      <point x="186" y="-192"/>
      <point x="259" y="-192"/>
      <point x="282" y="-194" type="curve"/>
    </contour>
    <contour>
      <point x="213" y="350" type="line"/>
      <point x="250" y="398"/>
      <point x="303" y="414"/>
      <point x="342" y="414" type="curve" smooth="yes"/>
      <point x="407" y="414"/>
      <point x="466" y="355"/>
      <point x="466" y="223" type="curve" smooth="yes"/>
      <point x="466" y="78"/>
      <point x="394" y="27"/>
      <point x="330" y="27" type="curve" smooth="yes"/>
      <point x="287" y="27"/>
      <point x="244" y="49"/>
      <point x="213" y="96" type="curve"/>
    </contour>
  </outline>
</glyph>
<glyph name="t" format="2">
  <advance width="437"/>
  <unicode hex="0074"/>
  <outline>
    <contour>
      <point x="211" y="401" type="line"/>
      <point x="355" y="401" type="line"/>
      <point x="355" y="444" type="line"/>
      <point x="211" y="444" type="line"/>
      <point x="211" y="635" type="line"/>
      <point x="169" y="635" type="line"/>
      <point x="168" y="536"/>
      <point x="120" y="437"/>
      <point x="21" y="434" type="curve"/>
      <point x="21" y="401" type="line"/>
      <point x="102" y="401" type="line"/>
      <point x="102" y="123" type="line" smooth="yes"/>
      <point x="102" y="17"/>
      <point x="184" y="-6"/>
      <point x="256" y="-6" type="curve" smooth="yes"/>
      <point x="330" y="-6"/>
      <point x="374" y="50"/>
      <point x="374" y="124" type="curve" smooth="yes"/>
      <point x="374" y="177" type="line"/>
      <point x="332" y="177" type="line"/>
      <point x="332" y="125" type="line" smooth="yes"/>
      <point x="332" y="59"/>
      <point x="302" y="30"/>
      <point x="271" y="30" type="curve" smooth="yes"/>
      <point x="211" y="30"/>
      <point x="211" y="97"/>
      <point x="211" y="120" type="curve" smooth="yes"/>
    </contour>
  </outline>
</glyph>
<glyph name="y" format="2">
  <advance width="593"/>
  <unicode hex="0079"/>
  <outline>
    <contour>
      <point x="495" y="379" type="line" smooth="yes"/>
      <point x="501" y="393"/>
      <point x="505" y="401"/>
      <point x="569" y="401" type="curve"/>
      <point x="569" y="444" type="line"/>
      <point x="535" y="442"/>
      <point x="531" y="442"/>
      <point x="490" y="442" type="curve" smooth="yes"/>
      <point x="463" y="442"/>
      <point x="461" y="442"/>
      <point x="404" y="444" type="curve"/>
      <point x="404" y="401" type="line"/>
      <point x="405" y="401"/>
      <point x="452" y="401"/>
      <point x="452" y="388" type="curve" smooth="yes"/>
      <point x="452" y="385"/>
      <point x="449" y="379"/>
      <point x="448" y="376" type="curve"/>
      <point x="331" y="124" type="line"/>
      <point x="203" y="401" type="line"/>
      <point x="258" y="401" type="line"/>
      <point x="258" y="444" type="line"/>
      <point x="234" y="442"/>
      <point x="166" y="442"/>
      <point x="138" y="442" type="curve" smooth="yes"/>
      <point x="109" y="442"/>
      <point x="50" y="442"/>
      <point x="24" y="444" type="curve"/>
      <point x="24" y="401" type="line"/>
      <point x="88" y="401" type="line"/>
      <point x="273" y="0" type="line"/>
      <point x="268" y="-12"/>
      <point x="254" y="-41"/>
      <point x="249" y="-53" type="curve" smooth="yes"/>
      <point x="228" y="-98"/>
      <point x="196" y="-167"/>
      <point x="126" y="-167" type="curve" smooth="yes"/>
      <point x="122" y="-167"/>
      <point x="110" y="-167"/>
      <point x="99" y="-161" type="curve"/>
      <point x="101" y="-160"/>
      <point x="131" y="-148"/>
      <point x="131" y="-110" type="curve" smooth="yes"/>
      <point x="131" y="-77"/>
      <point x="107" y="-56"/>
      <point x="77" y="-56" type="curve" smooth="yes"/>
      <point x="46" y="-56"/>
      <point x="22" y="-77"/>
      <point x="22" y="-111" type="curve" smooth="yes"/>
      <point x="22" y="-158"/>
      <point x="66" y="-200"/>
      <point x="126" y="-200" type="curve" smooth="yes"/>
      <point x="208" y="-200"/>
      <point x="262" y="-126"/>
      <point x="282" y="-82" type="curve" smooth="yes"/>
    </contour>
  </outline>
</glyph>
<glyph name="exclamdown" format="2">
  <advance width="342"/>
  <unicode hex="00A1"/>
  <outline>
    <contour>
      <point x="243" y="428" type="curve" smooth="yes"/>
      <point x="243" y="468"/>
      <point x="211" y="500"/>
      <point x="171" y="500" type="curve" smooth="yes"/>
      <point x="131" y="500"/>
      <point x="99" y="468"/>
      <point x="99" y="428" type="curve" smooth="yes"/>
      <point x="99" y="388"/>
      <point x="131" y="356"/>
      <point x="171" y="356" type="curve" smooth="yes"/>
      <point x="211" y="356"/>
      <point x="243" y="388"/>
    </contour>
    <contour>
      <point x="101" y="-113" type="line" smooth="yes"/>
      <point x="99" y="-127"/>
      <point x="99" y="-129"/>
      <point x="99" y="-140" type="curve" smooth="yes"/>
      <point x="99" y="-185"/>
      <point x="140" y="-206"/>
      <point x="171" y="-206" type="curve" smooth="yes"/>
      <point x="202" y="-206"/>
      <point x="243" y="-184"/>
      <point x="243" y="-140" type="curve" smooth="yes"/>
      <point x="243" y="-129"/>
      <point x="243" y="-127"/>
      <point x="241" y="-113" type="curve" smooth="yes"/>
      <point x="193" y="261" type="line" smooth="yes"/>
      <point x="191" y="280"/>
      <point x="190" y="283"/>
      <point x="171" y="283" type="curve" smooth="yes"/>
      <point x="152" y="283"/>
      <point x="151" y="280"/>
      <point x="149" y="261" type="curve" smooth="yes"/>
    </contour>
  </outline>
</glyph>
<glyph name="macron" format="2">
  <advance width="562"/>
  <unicode hex="00AF"/>
  <outline>
    <contour>
      <point x="483" y="557" type="line"/>
      <point x="483" y="605" type="line"/>
      <point x="78" y="605" type="line"/>
      <point x="78" y="557" type="line"/>
    </contour>
  </outline>
</glyph>
<glyph name="cedilla" format="2">
  <advance width="500"/>
  <unicode hex="00B8"/>
  <outline>
    <contour>
      <point x="335" y="-12" type="line"/>
      <point x="226" y="-12" type="line"/>
      <point x="226" y="-61" type="line"/>
      <point x="290" y="-62"/>
      <point x="320" y="-82"/>
      <point x="320" y="-113" type="curve" smooth="yes"/>
      <point x="320" y="-165"/>
      <point x="208" y="-165"/>
      <point x="184" y="-165" type="curve" smooth="yes"/>
      <point x="156" y="-165" type="line" smooth="yes"/>
      <point x="147" y="-165"/>
      <point x="140" y="-165"/>
      <point x="133" y="-166" type="curve"/>
      <point x="133" y="-199" type="line"/>
      <point x="167" y="-197"/>
      <point x="237" y="-200"/>
      <point x="296" y="-193" type="curve" smooth="yes"/>
      <point x="350" y="-186"/>
      <point x="429" y="-173"/>
      <point x="429" y="-112" type="curve" smooth="yes"/>
      <point x="429" y="-58"/>
      <point x="376" y="-40"/>
      <point x="335" y="-34" type="curve"/>
    </contour>
  </outline>
</glyph>
<glyph name="oslash" format="2">
  <advance width="562"/>
  <unicode hex="00F8"/>
  <outline>
    <contour>
      <point x="490" y="533" type="line"/>
      <point x="461" y="551" type="line"/>
      <point x="391" y="434" type="line"/>
      <point x="353" y="448"/>
      <point x="313" y="453"/>
      <point x="281" y="453" type="curve" smooth="yes"/>
      <point x="118" y="453"/>
      <point x="31" y="349"/>
      <point x="31" y="219" type="curve" smooth="yes"/>
      <point x="31" y="145"/>
      <point x="62" y="68"/>
      <point x="141" y="26" type="curve"/>
      <point x="72" y="-88" type="line"/>
      <point x="99" y="-106" type="line"/>
      <point x="171" y="12" type="line"/>
      <point x="204" y="0"/>
      <point x="245" y="-6"/>
      <point x="280" y="-6" type="curve" smooth="yes"/>
      <point x="443" y="-6"/>
      <point x="530" y="93"/>
      <point x="530" y="219" type="curve" smooth="yes"/>
      <point x="530" y="267"/>
      <point x="518" y="364"/>
      <point x="420" y="419" type="curve"/>
    </contour>
    <contour>
      <point x="170" y="74" type="line"/>
      <point x="140" y="114"/>
      <point x="140" y="162"/>
      <point x="140" y="220" type="curve" smooth="yes"/>
      <point x="140" y="270"/>
      <point x="140" y="324"/>
      <point x="167" y="365" type="curve" smooth="yes"/>
      <point x="188" y="399"/>
      <point x="231" y="420"/>
      <point x="281" y="420" type="curve" smooth="yes"/>
      <point x="310" y="420"/>
      <point x="341" y="412"/>
      <point x="366" y="395" type="curve"/>
    </contour>
    <contour>
      <point x="391" y="371" type="line"/>
      <point x="421" y="329"/>
      <point x="421" y="270"/>
      <point x="421" y="220" type="curve" smooth="yes"/>
      <point x="421" y="146"/>
      <point x="421" y="27"/>
      <point x="280" y="27" type="curve" smooth="yes"/>
      <point x="241" y="27"/>
      <point x="211" y="40"/>
      <point x="195" y="50" type="curve"/>
      <point x="195" y="51" type="line"/>
    </contour>
  </outline>
</glyph>
<glyph name="dotaccent" format="2">
  <advance width="312"/>
  <unicode hex="02D9"/>
  <outline>
    <contour>
      <point x="228" y="623" type="curve" smooth="yes"/>
      <point x="228" y="664"/>
      <point x="194" y="695"/>
      <point x="156" y="695" type="curve" smooth="yes"/>
      <point x="115" y="695"/>
      <point x="83" y="662"/>
      <point x="83" y="623" type="curve" smooth="yes"/>
      <point x="83" y="582"/>
      <point x="117" y="551"/>
      <point x="155" y="551" type="curve" smooth="yes"/>
      <point x="196" y="551"/>
      <point x="228" y="584"/>
    </contour>
  </outline>
</glyph>
<glyph name="Theta" format="2">
  <advance width="875"/>
  <unicode hex="0398"/>
  <outline>
    <contour>
      <point x="812" y="340" type="curve" smooth="yes"/>
      <point x="812" y="548"/>
      <point x="673" y="698"/>
      <point x="437" y="698" type="curve" smooth="yes"/>
      <point x="201" y="698"/>
      <point x="62" y="547"/>
      <point x="62" y="340" type="curve" smooth="yes"/>
      <point x="62" y="134"/>
      <point x="202" y="-12"/>
      <point x="437" y="-12" type="curve" smooth="yes"/>
      <point x="673" y="-12"/>
      <point x="812" y="135"/>
    </contour>
    <contour>
      <point x="437" y="23" type="curve" smooth="yes"/>
      <point x="355" y="23"/>
      <point x="293" y="60"/>
      <point x="258" y="102" type="curve" smooth="yes"/>
      <point x="201" y="174"/>
      <point x="194" y="266"/>
      <point x="194" y="340" type="curve" smooth="yes"/>
      <point x="194" y="428"/>
      <point x="205" y="503"/>
      <point x="247" y="568" type="curve" smooth="yes"/>
      <point x="287" y="629"/>
      <point x="359" y="665"/>
      <point x="437" y="665" type="curve" smooth="yes"/>
      <point x="522" y="665"/>
      <point x="591" y="624"/>
      <point x="627" y="567" type="curve" smooth="yes"/>
      <point x="664" y="510"/>
      <point x="680" y="442"/>
      <point x="680" y="340" type="curve" smooth="yes"/>
      <point x="680" y="281"/>
      <point x="676" y="191"/>
      <point x="628" y="120" type="curve" smooth="yes"/>
      <point x="581" y="49"/>
      <point x="504" y="23"/>
    </contour>
    <contour>
      <point x="617" y="434" type="line"/>
      <point x="575" y="434" type="line"/>
      <point x="575" y="400" type="line"/>
      <point x="299" y="400" type="line"/>
      <point x="299" y="434" type="line"/>
      <point x="257" y="434" type="line"/>
      <point x="257" y="254" type="line"/>
      <point x="299" y="254" type="line"/>
      <point x="299" y="288" type="line"/>
      <point x="575" y="288" type="line"/>
      <point x="575" y="254" type="line"/>
      <point x="617" y="254" type="line"/>
    </contour>
  </outline>
</glyph>
<glyph name="Xi" format="2">
  <advance width="750"/>
  <unicode hex="039E"/>
  <outline>
    <contour>
      <point x="687" y="677" type="line"/>
      <point x="62" y="677" type="line"/>
      <point x="53" y="487" type="line"/>
      <point x="95" y="487" type="line"/>
      <point x="96" y="506"/>
      <point x="97" y="551"/>
      <point x="109" y="565" type="curve" smooth="yes"/>
      <point x="116" y="573"/>
      <point x="189" y="573"/>
      <point x="190" y="573" type="curve" smooth="yes"/>
      <point x="559" y="573" type="line" smooth="yes"/>
      <point x="570" y="573"/>
      <point x="635" y="573"/>
      <point x="641" y="564" type="curve"/>
      <point x="645" y="557"/>
      <point x="652" y="546"/>
      <point x="654" y="487" type="curve"/>
      <point x="696" y="487" type="line"/>
    </contour>
    <contour>
      <point x="56" y="0" type="line"/>
      <point x="693" y="0" type="line"/>
      <point x="702" y="201" type="line"/>
      <point x="660" y="201" type="line"/>
      <point x="657" y="157"/>
      <point x="656" y="124"/>
      <point x="646" y="113" type="curve" smooth="yes"/>
      <point x="637" y="104"/>
      <point x="570" y="104"/>
      <point x="561" y="104" type="curve" smooth="yes"/>
      <point x="188" y="104" type="line" smooth="yes"/>
      <point x="162" y="104"/>
      <point x="109" y="104"/>
      <point x="102" y="116" type="curve"/>
      <point x="93" y="129"/>
      <point x="92" y="157"/>
      <point x="89" y="201" type="curve"/>
      <point x="47" y="201" type="line"/>
    </contour>
    <contour>
      <point x="593" y="457" type="line"/>
      <point x="551" y="457" type="line"/>
      <point x="551" y="404" type="line"/>
      <point x="198" y="404" type="line"/>
      <point x="198" y="457" type="line"/>
      <point x="156" y="457" type="line"/>
      <point x="156" y="247" type="line"/>
      <point x="198" y="247" type="line"/>
      <point x="198" y="300" type="line"/>
      <point x="551" y="300" type="line"/>
      <point x="551" y="247" type="line"/>
      <point x="593" y="247" type="line"/>
    </contour>
  </outline>
</glyph>
<glyph name="Pi" format="2">
  <advance width="879"/>
  <unicode hex="03A0"/>
  <outline>
    <contour>
      <point x="735" y="638" type="line"/>
      <point x="841" y="638" type="line"/>
      <point x="841" y="681" type="line"/>
      <point x="38" y="681" type="line"/>
      <point x="38" y="638" type="line"/>
      <point x="144" y="638" type="line"/>
      <point x="144" y="43" type="line"/>
      <point x="38" y="43" type="line"/>
      <point x="38" y="0" type="line"/>
      <point x="67" y="2"/>
      <point x="174" y="2"/>
      <point x="210" y="2" type="curve" smooth="yes"/>
      <point x="246" y="2"/>
      <point x="353" y="2"/>
      <point x="382" y="0" type="curve"/>
      <point x="382" y="43" type="line"/>
      <point x="276" y="43" type="line"/>
      <point x="276" y="638" type="line"/>
      <point x="603" y="638" type="line"/>
      <point x="603" y="43" type="line"/>
      <point x="497" y="43" type="line"/>
      <point x="497" y="0" type="line"/>
      <point x="526" y="2"/>
      <point x="633" y="2"/>
      <point x="669" y="2" type="curve" smooth="yes"/>
      <point x="705" y="2"/>
      <point x="812" y="2"/>
      <point x="841" y="0" type="curve"/>
      <point x="841" y="43" type="line"/>
      <point x="735" y="43" type="line"/>
    </contour>
  </outline>
</glyph>
<glyph name="Sigma" format="2">
  <advance width="812"/>
  <unicode hex="03A3"/>
  <outline>
    <contour>
      <point x="460" y="326" type="line" smooth="yes"/>
      <point x="468" y="334"/>
      <point x="471" y="336"/>
      <point x="471" y="343" type="curve" smooth="yes"/>
      <point x="471" y="346"/>
      <point x="471" y="348"/>
      <point x="463" y="358" type="curve" smooth="yes"/>
      <point x="238" y="643" type="line"/>
      <point x="451" y="643" type="line" smooth="yes"/>
      <point x="596" y="643"/>
      <point x="686" y="618"/>
      <point x="707" y="449" type="curve"/>
      <point x="749" y="449" type="line"/>
      <point x="720" y="686" type="line"/>
      <point x="91" y="686" type="line" smooth="yes"/>
      <point x="63" y="686"/>
      <point x="62" y="682"/>
      <point x="62" y="654" type="curve"/>
      <point x="351" y="288" type="line"/>
      <point x="73" y="32" type="line" smooth="yes"/>
      <point x="69" y="28"/>
      <point x="62" y="21"/>
      <point x="62" y="15" type="curve" smooth="yes"/>
      <point x="62" y="0"/>
      <point x="78" y="0"/>
      <point x="91" y="0" type="curve" smooth="yes"/>
      <point x="720" y="0" type="line"/>
      <point x="749" y="254" type="line"/>
      <point x="707" y="254" type="line"/>
      <point x="687" y="81"/>
      <point x="589" y="60"/>
      <point x="447" y="60" type="curve" smooth="yes"/>
      <point x="171" y="60" type="line"/>
    </contour>
  </outline>
</glyph>
<glyph name="Phi" format="2">
  <advance width="812"/>
  <unicode hex="03A6"/>
  <outline>
    <contour>
      <point x="596" y="643" type="line"/>
      <point x="596" y="686" type="line"/>
      <point x="554" y="684"/>
      <point x="449" y="684"/>
      <point x="402" y="684" type="curve" smooth="yes"/>
      <point x="355" y="684"/>
      <point x="249" y="684"/>
      <point x="207" y="686" type="curve"/>
      <point x="207" y="643" type="line"/>
      <point x="340" y="643" type="line"/>
      <point x="340" y="538" type="line"/>
      <point x="140" y="521"/>
      <point x="62" y="428"/>
      <point x="62" y="343" type="curve" smooth="yes"/>
      <point x="62" y="257"/>
      <point x="141" y="165"/>
      <point x="340" y="148" type="curve"/>
      <point x="340" y="43" type="line"/>
      <point x="207" y="43" type="line"/>
      <point x="207" y="0" type="line"/>
      <point x="249" y="2"/>
      <point x="354" y="2"/>
      <point x="401" y="2" type="curve" smooth="yes"/>
      <point x="448" y="2"/>
      <point x="554" y="2"/>
      <point x="596" y="0" type="curve"/>
      <point x="596" y="43" type="line"/>
      <point x="463" y="43" type="line"/>
      <point x="463" y="148" type="line"/>
      <point x="696" y="165"/>
      <point x="749" y="277"/>
      <point x="749" y="343" type="curve" smooth="yes"/>
      <point x="749" y="409"/>
      <point x="696" y="521"/>
      <point x="463" y="538" type="curve"/>
      <point x="463" y="643" type="line"/>
    </contour>
    <contour>
      <point x="340" y="183" type="line"/>
      <point x="215" y="200"/>
      <point x="198" y="273"/>
      <point x="198" y="343" type="curve" smooth="yes"/>
      <point x="198" y="413"/>
      <point x="214" y="486"/>
      <point x="340" y="503" type="curve"/>
    </contour>
    <contour>
      <point x="463" y="504" type="line"/>
      <point x="591" y="489"/>
      <point x="613" y="421"/>
      <point x="613" y="343" type="curve" smooth="yes"/>
      <point x="613" y="265"/>
      <point x="591" y="197"/>
      <point x="463" y="182" type="curve"/>
    </contour>
  </outline>
</glyph>
<glyph name="Psi" format="2">
  <advance width="875"/>
  <unicode hex="03A8"/>
  <outline>
    <contour>
      <point x="494" y="643" type="line"/>
      <point x="627" y="643" type="line"/>
      <point x="627" y="686" type="line"/>
      <point x="585" y="684"/>
      <point x="480" y="684"/>
      <point x="433" y="684" type="curve" smooth="yes"/>
      <point x="386" y="684"/>
      <point x="280" y="684"/>
      <point x="238" y="686" type="curve"/>
      <point x="238" y="643" type="line"/>
      <point x="371" y="643" type="line"/>
      <point x="371" y="188" type="line"/>
      <point x="281" y="216"/>
      <point x="250" y="289"/>
      <point x="249" y="415" type="curve" smooth="yes"/>
      <point x="248" y="515"/>
      <point x="216" y="550"/>
      <point x="161" y="550" type="curve" smooth="yes"/>
      <point x="91" y="550" type="line" smooth="yes"/>
      <point x="76" y="550"/>
      <point x="62" y="550"/>
      <point x="62" y="533" type="curve" smooth="yes"/>
      <point x="62" y="526"/>
      <point x="66" y="519"/>
      <point x="75" y="517" type="curve"/>
      <point x="89" y="515"/>
      <point x="103" y="514"/>
      <point x="113" y="491" type="curve" smooth="yes"/>
      <point x="125" y="463"/>
      <point x="126" y="425"/>
      <point x="126" y="423" type="curve" smooth="yes"/>
      <point x="126" y="381"/>
      <point x="127" y="297"/>
      <point x="186" y="231" type="curve" smooth="yes"/>
      <point x="246" y="163"/>
      <point x="337" y="153"/>
      <point x="371" y="149" type="curve"/>
      <point x="371" y="43" type="line"/>
      <point x="238" y="43" type="line"/>
      <point x="238" y="0" type="line"/>
      <point x="280" y="2"/>
      <point x="385" y="2"/>
      <point x="432" y="2" type="curve" smooth="yes"/>
      <point x="479" y="2"/>
      <point x="585" y="2"/>
      <point x="627" y="0" type="curve"/>
      <point x="627" y="43" type="line"/>
      <point x="494" y="43" type="line"/>
      <point x="494" y="149" type="line"/>
      <point x="567" y="155"/>
      <point x="636" y="177"/>
      <point x="687" y="231" type="curve" smooth="yes"/>
      <point x="738" y="285"/>
      <point x="748" y="368"/>
      <point x="748" y="396" type="curve" smooth="yes"/>
      <point x="748" y="436"/>
      <point x="749" y="511"/>
      <point x="792" y="517" type="curve" smooth="yes"/>
      <point x="803" y="518"/>
      <point x="812" y="520"/>
      <point x="812" y="533" type="curve" smooth="yes"/>
      <point x="812" y="550"/>
      <point x="800" y="550"/>
      <point x="783" y="550" type="curve" smooth="yes"/>
      <point x="713" y="550" type="line" smooth="yes"/>
      <point x="644" y="550"/>
      <point x="626" y="496"/>
      <point x="625" y="405" type="curve" smooth="yes"/>
      <point x="624" y="287"/>
      <point x="586" y="210"/>
      <point x="494" y="187" type="curve"/>
    </contour>
  </outline>
</glyph>
<glyph name="Delta" format="2">
  <advance width="937"/>
  <unicode hex="2206"/>
  <outline>
    <contour>
      <point x="507" y="679" type="line" smooth="yes"/>
      <point x="495" y="700"/>
      <point x="484" y="700"/>
      <point x="468" y="700" type="curve" smooth="yes"/>
      <point x="450" y="700"/>
      <point x="441" y="699"/>
      <point x="431" y="681" type="curve" smooth="yes"/>
      <point x="60" y="24" type="line"/>
      <point x="58" y="20"/>
      <point x="55" y="14"/>
      <point x="55" y="10" type="curve" smooth="yes"/>
      <point x="55" y="0"/>
      <point x="63" y="0"/>
      <point x="79" y="0" type="curve" smooth="yes"/>
      <point x="857" y="0" type="line" smooth="yes"/>
      <point x="873" y="0"/>
      <point x="881" y="0"/>
      <point x="881" y="10" type="curve" smooth="yes"/>
      <point x="881" y="14"/>
      <point x="878" y="20"/>
      <point x="876" y="24" type="curve" smooth="yes"/>
    </contour>
    <contour>
      <point x="419" y="566" type="line"/>
      <point x="674" y="112" type="line"/>
      <point x="163" y="112" type="line"/>
    </contour>
  </outline>
</glyph>
<glyph name="ffi" format="2">
  <advance width="937"/>
  <outline>
    <contour>
      <point x="659" y="448" type="line"/>
      <point x="659" y="444" type="line"/>
      <point x="515" y="444" type="line"/>
      <point x="515" y="544" type="line" smooth="yes"/>
      <point x="515" y="657"/>
      <point x="633" y="667"/>
      <point x="673" y="667" type="curve" smooth="yes"/>
      <point x="684" y="667"/>
      <point x="720" y="667"/>
      <point x="750" y="647" type="curve"/>
      <point x="719" y="637"/>
      <point x="706" y="613"/>
      <point x="706" y="587" type="curve" smooth="yes"/>
      <point x="706" y="550"/>
      <point x="733" y="526"/>
      <point x="767" y="526" type="curve" smooth="yes"/>
      <point x="800" y="526"/>
      <point x="828" y="549"/>
      <point x="828" y="587" type="curve" smooth="yes"/>
      <point x="828" y="642"/>
      <point x="783" y="700"/>
      <point x="682" y="700" type="curve" smooth="yes"/>
      <point x="602" y="700"/>
      <point x="539" y="687"/>
      <point x="485" y="656" type="curve"/>
      <point x="443" y="700"/>
      <point x="385" y="700"/>
      <point x="367" y="700" type="curve" smooth="yes"/>
      <point x="254" y="700"/>
      <point x="104" y="666"/>
      <point x="104" y="545" type="curve" smooth="yes"/>
      <point x="104" y="444" type="line"/>
      <point x="30" y="444" type="line"/>
      <point x="30" y="401" type="line"/>
      <point x="104" y="401" type="line"/>
      <point x="104" y="43" type="line"/>
      <point x="35" y="43" type="line"/>
      <point x="35" y="0" type="line"/>
      <point x="58" y="2"/>
      <point x="129" y="2"/>
      <point x="156" y="2" type="curve" smooth="yes"/>
      <point x="183" y="2"/>
      <point x="254" y="2"/>
      <point x="277" y="0" type="curve"/>
      <point x="277" y="43" type="line"/>
      <point x="208" y="43" type="line"/>
      <point x="208" y="401" type="line"/>
      <point x="416" y="401" type="line"/>
      <point x="416" y="43" type="line"/>
      <point x="347" y="43" type="line"/>
      <point x="347" y="0" type="line"/>
      <point x="370" y="2"/>
      <point x="441" y="2"/>
      <point x="468" y="2" type="curve" smooth="yes"/>
      <point x="495" y="2"/>
      <point x="566" y="2"/>
      <point x="589" y="0" type="curve"/>
      <point x="589" y="43" type="line"/>
      <point x="520" y="43" type="line"/>
      <point x="520" y="401" type="line"/>
      <point x="697" y="401" type="line" smooth="yes"/>
      <point x="722" y="401"/>
      <point x="728" y="400"/>
      <point x="728" y="365" type="curve" smooth="yes"/>
      <point x="728" y="43" type="line"/>
      <point x="659" y="43" type="line"/>
      <point x="659" y="0" type="line"/>
      <point x="682" y="2"/>
      <point x="753" y="2"/>
      <point x="780" y="2" type="curve" smooth="yes"/>
      <point x="807" y="2"/>
      <point x="878" y="2"/>
      <point x="901" y="0" type="curve"/>
      <point x="901" y="43" type="line"/>
      <point x="832" y="43" type="line"/>
      <point x="832" y="453" type="line"/>
    </contour>
    <contour>
      <point x="203" y="444" type="line"/>
      <point x="203" y="544" type="line" smooth="yes"/>
      <point x="203" y="633"/>
      <point x="278" y="667"/>
      <point x="358" y="667" type="curve" smooth="yes"/>
      <point x="375" y="667"/>
      <point x="407" y="665"/>
      <point x="434" y="647" type="curve"/>
      <point x="404" y="638"/>
      <point x="389" y="617"/>
      <point x="389" y="587" type="curve" smooth="yes"/>
      <point x="389" y="566"/>
      <point x="397" y="547"/>
      <point x="416" y="536" type="curve"/>
      <point x="416" y="444" type="line"/>
    </contour>
  </outline>
</glyph>
<glyph name="fi" format="2">
  <advance width="625"/>
  <outline>
    <contour>
      <point x="347" y="448" type="line"/>
      <point x="347" y="444" type="line"/>
      <point x="203" y="444" type="line"/>
      <point x="203" y="544" type="line" smooth="yes"/>
      <point x="203" y="657"/>
      <point x="321" y="667"/>
      <point x="361" y="667" type="curve" smooth="yes"/>
      <point x="372" y="667"/>
      <point x="408" y="667"/>
      <point x="438" y="647" type="curve"/>
      <point x="407" y="637"/>
      <point x="394" y="613"/>
      <point x="394" y="587" type="curve" smooth="yes"/>
      <point x="394" y="550"/>
      <point x="421" y="526"/>
      <point x="455" y="526" type="curve" smooth="yes"/>
      <point x="488" y="526"/>
      <point x="516" y="549"/>
      <point x="516" y="587" type="curve" smooth="yes"/>
      <point x="516" y="642"/>
      <point x="471" y="700"/>
      <point x="370" y="700" type="curve" smooth="yes"/>
      <point x="256" y="700"/>
      <point x="104" y="666"/>
      <point x="104" y="545" type="curve" smooth="yes"/>
      <point x="104" y="444" type="line"/>
      <point x="30" y="444" type="line"/>
      <point x="30" y="401" type="line"/>
      <point x="104" y="401" type="line"/>
      <point x="104" y="43" type="line"/>
      <point x="35" y="43" type="line"/>
      <point x="35" y="0" type="line"/>
      <point x="58" y="2"/>
      <point x="129" y="2"/>
      <point x="156" y="2" type="curve" smooth="yes"/>
      <point x="183" y="2"/>
      <point x="254" y="2"/>
      <point x="277" y="0" type="curve"/>
      <point x="277" y="43" type="line"/>
      <point x="208" y="43" type="line"/>
      <point x="208" y="401" type="line"/>
      <point x="385" y="401" type="line" smooth="yes"/>
      <point x="410" y="401"/>
      <point x="416" y="400"/>
      <point x="416" y="365" type="curve" smooth="yes"/>
      <point x="416" y="43" type="line"/>
      <point x="347" y="43" type="line"/>
      <point x="347" y="0" type="line"/>
      <point x="370" y="2"/>
      <point x="441" y="2"/>
      <point x="468" y="2" type="curve" smooth="yes"/>
      <point x="495" y="2"/>
      <point x="566" y="2"/>
      <point x="589" y="0" type="curve"/>
      <point x="589" y="43" type="line"/>
      <point x="520" y="43" type="line"/>
      <point x="520" y="453" type="line"/>
    </contour>
  </outline>
</glyph>
<glyph name="suppress" format="2">
  <advance width="312"/>
  <outline>
    <contour>
      <point x="312" y="360" type="line"/>
      <point x="301" y="402" type="line"/>
      <point x="17" y="320" type="line"/>
      <point x="28" y="279" type="line"/>
    </contour>
  </outline>
</glyph>
